<?xml version="1.0" encoding="UTF-8" standalone="no"?>
<!-- Created with Inkscape (http://www.inkscape.org/) -->

<svg
   width="135.73109mm"
   height="58.039028mm"
   viewBox="0 0 135.7311 58.039029"
   version="1.1"
   id="svg1"
   inkscape:version="1.3.2 (091e20e, 2023-11-25, custom)"
   sodipodi:docname="NPG SNES with Logo.svg"
   xmlns:inkscape="http://www.inkscape.org/namespaces/inkscape"
   xmlns:sodipodi="http://sodipodi.sourceforge.net/DTD/sodipodi-0.dtd"
   xmlns="http://www.w3.org/2000/svg"
   xmlns:svg="http://www.w3.org/2000/svg">
  <sodipodi:namedview
     id="namedview1"
     pagecolor="#6e6e6e"
     bordercolor="#000000"
     borderopacity="0.25"
     inkscape:showpageshadow="2"
     inkscape:pageopacity="0.0"
     inkscape:pagecheckerboard="0"
     inkscape:deskcolor="#d1d1d1"
     inkscape:document-units="mm"
     inkscape:zoom="1.6204616"
     inkscape:cx="219.07339"
     inkscape:cy="510.34842"
     inkscape:window-width="1916"
     inkscape:window-height="2041"
     inkscape:window-x="1911"
     inkscape:window-y="0"
     inkscape:window-maximized="0"
     inkscape:current-layer="g37" />
  <defs
     id="defs1">
    <inkscape:path-effect
       effect="fillet_chamfer"
       id="path-effect52"
       is_visible="true"
       lpeversion="1"
       nodesatellites_param="F,0,0,1,0,0,0,1 @ F,0,0,1,0,0,0,1 @ F,0,0,1,0,0,0,1 @ F,0,0,1,0,0,0,1 @ F,0,0,1,0,0,0,1 @ F,0,0,1,0,0,0,1"
       radius="0"
       unit="px"
       method="auto"
       mode="F"
       chamfer_steps="1"
       flexible="false"
       use_knot_distance="true"
       apply_no_radius="true"
       apply_with_radius="true"
       only_selected="false"
       hide_knots="false" />
    <inkscape:path-effect
       effect="fillet_chamfer"
       id="path-effect50"
       is_visible="true"
       lpeversion="1"
       nodesatellites_param="F,0,0,1,0,2.9104167,0,1 @ F,0,0,1,0,2.9104167,0,1 @ F,0,0,1,0,2.9104167,0,1 @ F,0,0,1,0,2.9104167,0,1"
       radius="11"
       unit="px"
       method="auto"
       mode="F"
       chamfer_steps="1"
       flexible="false"
       use_knot_distance="true"
       apply_no_radius="true"
       apply_with_radius="true"
       only_selected="false"
       hide_knots="false" />
  </defs>
  <g
     inkscape:label="Layer 1"
     inkscape:groupmode="layer"
     id="layer1"
     transform="translate(-14.150146,-230.81564)">
    <g
       id="g37"
       transform="translate(-125.29973,-21.091777)">
      <g
         id="g4"
         transform="translate(0,-2.1225948)">
        <path
           style="fill:#f8f8f8;fill-opacity:1;stroke:#c0bfbf;stroke-width:0.65;stroke-linecap:round;stroke-linejoin:round;stroke-dasharray:none;stroke-opacity:1;paint-order:stroke fill markers"
           d="m 261.59075,258.31514 c 0,0 -6.40861,-3.95946 -13.96015,-3.95946 h -14.7357 c 0,0 -0.66331,-0.0306 -0.66331,0.52044 v 1.66338 h 16.15048 l 10.04448,2.74031 3.94708,1.18341 0.0378,-1.00632 c 0,0 0.12595,-0.65409 -0.82057,-1.14176 z"
           id="path1"
           sodipodi:nodetypes="cscsccccccc" />
        <path
           style="fill:#f8f8f8;fill-opacity:1;stroke:#c0bfbf;stroke-width:0.65;stroke-linecap:round;stroke-linejoin:round;stroke-dasharray:none;stroke-opacity:1;paint-order:stroke fill markers"
           d="m 153.50169,258.31514 c 0,0 6.40861,-3.95946 13.96014,-3.95946 h 14.73571 c 0,0 0.66331,-0.0306 0.66331,0.52044 v 1.66338 h -16.15049 l -10.04448,2.74031 -3.94708,1.18341 -0.0378,-1.00632 c 0,0 -0.12594,-0.65409 0.82058,-1.14176 z"
           id="path2"
           sodipodi:nodetypes="cscsccccccc" />
        <path
           style="fill:#ffffff;fill-opacity:1;stroke:#c0bfbf;stroke-width:0.265;stroke-dasharray:none;stroke-opacity:1"
           d="m 247.02125,255.88114 h -78.48177 c -15.43182,0 -28.66998,12.07293 -28.95229,27.50238 -0.28787,15.71942 12.36874,28.55277 28.02255,28.55277 7.59989,0 14.47323,-3.04244 19.51884,-7.95681 0.87894,-0.85593 2.02353,-1.38563 3.25067,-1.38563 h 33.87831 c 1.22396,0 2.36458,0.52785 3.24088,1.38219 5.70707,5.56074 13.75516,8.72648 22.54727,7.80097 12.91219,-1.35943 23.41139,-11.7901 24.82823,-24.69621 1.85579,-16.89999 -11.3284,-31.19966 -27.85269,-31.19966 z"
           id="path3" />
        <circle
           style="fill:#dcdbdb;fill-opacity:1;stroke-width:0.264583"
           cx="247.02126"
           cy="283.90872"
           r="23.356358"
           id="circle3" />
        <circle
           style="fill:#8e8e8e;fill-opacity:1;stroke-width:0.307787"
           cx="166.15984"
           cy="283.90887"
           r="17.660452"
           id="circle4" />
        <path
           style="fill:#ffffff;fill-opacity:1;stroke:#000000;stroke-width:0.307787;stroke-opacity:1"
           d="m 176.85813,279.32377 h -4.58509 c -0.84395,0 -1.52846,-0.68421 -1.52846,-1.52846 v -4.58509 c 0,-0.84395 -0.68421,-1.52847 -1.52847,-1.52847 h -6.11293 c -0.84395,0 -1.52847,0.68421 -1.52847,1.52847 v 4.58509 c 0,0.84395 -0.68421,1.52846 -1.52847,1.52846 h -4.58447 c -0.84395,0 -1.52846,0.68421 -1.52846,1.52847 v 6.11324 c 0,0.84395 0.6842,1.52847 1.52846,1.52847 h 4.58509 c 0.84395,0 1.52847,0.68421 1.52847,1.52846 v 4.58509 c 0,0.84395 0.6842,1.52846 1.52846,1.52846 h 6.11324 c 0.84395,0 1.52847,-0.6842 1.52847,-1.52846 v -4.58509 c 0,-0.84395 0.68421,-1.52846 1.52847,-1.52846 h 4.58508 c 0.84395,0 1.52847,-0.68421 1.52847,-1.52847 v -6.11324 c 0,-0.84426 -0.68544,-1.52847 -1.52939,-1.52847 z"
           id="path4" />
        <circle
           style="fill:#808080;fill-opacity:1;stroke:none;stroke-width:0.307787;stroke-opacity:1"
           cx="166.15984"
           cy="283.90887"
           r="2.7171347"
           id="circle5" />
        <path
           style="fill:#808080;fill-opacity:1;stroke:none;stroke-width:0.264583;stroke-opacity:1"
           d="m 234.17785,289.16387 c -1.37081,0 -2.72812,-0.60008 -3.6494,-1.75287 -1.61237,-2.01506 -1.28641,-4.95405 0.72999,-6.56537 l 11.67818,-9.34243 c 2.01189,-1.6137 4.95405,-1.28641 6.56431,0.72866 1.61237,2.01506 1.2864,4.95406 -0.72999,6.56537 l -11.67818,9.34244 c -0.85989,0.69003 -1.89097,1.0242 -2.91491,1.0242 z"
           id="path5" />
        <path
           style="fill:#808080;fill-opacity:1;stroke:none;stroke-width:0.264583;stroke-opacity:1"
           d="m 248.19151,297.3387 c -1.37081,0 -2.72812,-0.60008 -3.6494,-1.75287 -1.61237,-2.01506 -1.28641,-4.95405 0.72998,-6.56537 l 11.67818,-9.34243 c 2.00951,-1.61476 4.95644,-1.28403 6.56431,0.72866 1.61238,2.01507 1.28641,4.95406 -0.72998,6.56537 l -11.67818,9.34244 c -0.8599,0.68977 -1.89071,1.0242 -2.91491,1.0242 z"
           id="path6" />
        <circle
           style="fill:#ffffff;fill-opacity:1;stroke:#000000;stroke-width:0.246991;stroke-opacity:1"
           cx="234.16255"
           cy="284.51999"
           r="4.3606234"
           id="circle6" />
        <circle
           style="fill:#ffffff;fill-opacity:1;stroke:#000000;stroke-width:0.246991;stroke-opacity:1"
           cx="245.82491"
           cy="275.10419"
           r="4.3606234"
           id="circle7" />
        <circle
           style="fill:#ffffff;fill-opacity:1;stroke:#000000;stroke-width:0.246991;stroke-opacity:1"
           cx="259.89896"
           cy="283.33057"
           r="4.3606234"
           id="circle8" />
        <circle
           style="fill:#ffffff;fill-opacity:1;stroke:#000000;stroke-width:0.246991;stroke-opacity:1"
           cx="248.23659"
           cy="292.64734"
           r="4.3606234"
           id="circle9" />
        <g
           id="g3"
           transform="translate(-0.97969654)">
          <path
             style="fill:#ffffff;fill-opacity:1;stroke:#000000;stroke-width:0.333942;stroke-opacity:1"
             d="m 197.18355,294.78691 c -1.0672,0.18222 -2.19188,-0.23014 -2.87639,-1.16178 -0.96343,-1.31325 -0.67942,-3.15791 0.63392,-4.12069 l 5.31552,-3.89828 c 1.31352,-0.96177 3.15793,-0.67942 4.1207,0.63393 0.96277,1.31336 0.67944,3.15794 -0.63392,4.1207 l -5.31551,3.89827 c -0.38116,0.27952 -0.80749,0.45328 -1.24432,0.52785 z"
             id="path9" />
          <path
             style="font-size:1.93563px;line-height:1.7;font-family:'Race Sport';-inkscape-font-specification:'Race Sport';letter-spacing:0.19183px;word-spacing:0.275232px;fill:#2b2c2f;stroke-width:0.189137;stroke-linecap:round;stroke-linejoin:round;stroke-dasharray:0.189137, 0.378274, 0.189137, 0.756542;paint-order:stroke fill markers"
             d="m 194.13645,298.00614 0.0213,-0.1084 h 0.40648 l -0.008,0.0368 q -0.004,0.0213 0.01,0.0387 0.0136,0.0155 0.0348,0.0155 h 0.76264 l -0.22647,-0.0677 0.0213,-0.10453 q 0.004,-0.0213 -0.01,-0.0368 -0.0135,-0.0174 -0.0348,-0.0174 h -0.62715 q -0.0581,0 -0.10839,-0.0252 -0.0503,-0.0252 -0.0832,-0.0658 -0.0329,-0.0406 -0.0484,-0.0948 -0.0135,-0.0542 -0.002,-0.11227 l 0.0619,-0.31551 q 0.0174,-0.0871 0.0852,-0.14323 0.0697,-0.0561 0.15872,-0.0561 h 0.89426 q 0.0581,0 0.10839,0.0252 0.0503,0.0252 0.0832,0.0658 0.0329,0.0406 0.0484,0.0948 0.0155,0.0523 0.004,0.11033 l -0.0232,0.11033 h -0.40648 l 0.008,-0.0368 q 0.004,-0.0213 -0.01,-0.0368 -0.0136,-0.0174 -0.0348,-0.0174 h -0.77038 l 0.22453,0.0677 -0.0155,0.0813 q -0.004,0.0213 0.01,0.0387 0.0135,0.0155 0.0348,0.0155 h 0.51294 q 0.0581,0 0.0949,0 l 0.0368,0.002 q 0.0561,0.004 0.10066,0.031 0.0464,0.0252 0.0774,0.0658 0.031,0.0406 0.0445,0.0929 0.0136,0.0503 0.002,0.10646 l -0.0678,0.33873 q -0.0174,0.0871 -0.0871,0.14324 -0.0677,0.0561 -0.15679,0.0561 h -0.88458 q -0.0581,0 -0.1084,-0.0252 -0.0503,-0.0252 -0.0832,-0.0658 -0.0329,-0.0406 -0.0484,-0.0948 -0.0135,-0.0542 -0.002,-0.11226 z m 2.15263,-0.74135 0.22646,0.0677 -0.029,0.14711 h 0.72393 l -0.0581,0.29421 h -0.72586 l -0.031,0.16066 q -0.004,0.0213 0.01,0.0387 0.0135,0.0155 0.0348,0.0155 h 0.80135 l -0.0619,0.3155 h -0.98911 q -0.0542,0 -0.10065,-0.0213 -0.0445,-0.0232 -0.0755,-0.06 -0.029,-0.0387 -0.0426,-0.0871 -0.0136,-0.0503 -0.004,-0.10258 l 0.21679,-1.08396 h 1.2659 l -0.0639,0.31551 z m 1.43063,1.03943 0.27099,-1.35494 h 0.451 l -0.19356,0.97169 -0.24002,0.0677 h 1.06653 l -0.0639,0.3155 z m 2.01713,-1.03943 0.22647,0.0677 -0.029,0.14711 h 0.72393 l -0.0581,0.29421 h -0.72586 l -0.031,0.16066 q -0.004,0.0213 0.01,0.0387 0.0136,0.0155 0.0348,0.0155 h 0.80135 l -0.0619,0.3155 h -0.98911 q -0.0542,0 -0.10065,-0.0213 -0.0445,-0.0232 -0.0755,-0.06 -0.029,-0.0387 -0.0426,-0.0871 -0.0136,-0.0503 -0.004,-0.10258 l 0.21679,-1.08396 h 1.26591 l -0.0639,0.31551 z m 1.76163,0 0.22646,0.0677 -0.12,0.60198 q -0.004,0.0213 0.01,0.0387 0.0136,0.0155 0.0348,0.0155 h 0.53037 q 0.0348,0 0.0445,-0.0368 l 0.0194,-0.0987 h 0.40649 l -0.0542,0.26905 q -0.0155,0.0813 -0.0774,0.13163 -0.0619,0.0503 -0.14323,0.0503 h -1.00847 q -0.0464,0 -0.0871,-0.0193 -0.0406,-0.0194 -0.0678,-0.0523 -0.0271,-0.0349 -0.0387,-0.0774 -0.0116,-0.0426 -0.002,-0.089 l 0.18776,-0.93491 q 0.0155,-0.0813 0.0774,-0.13162 0.0619,-0.0503 0.14323,-0.0503 h 0.98524 q 0.0523,0 0.0968,0.0232 0.0464,0.0213 0.0774,0.06 0.031,0.0368 0.0445,0.0852 0.0136,0.0484 0.002,0.10065 l -0.0368,0.18195 h -0.40648 l 0.0174,-0.0813 q 0.004,-0.0213 -0.01,-0.0368 -0.0136,-0.0174 -0.0348,-0.0174 z m 1.67258,-0.31551 h 1.38204 l -0.0639,0.31551 h -0.69102 l 0.22647,0.0677 -0.1955,0.97168 h -0.451 l 0.20711,-1.03943 h -0.4781 z"
             id="path16"
             aria-label="SELECT" />
          <path
             style="font-size:1.93563px;line-height:1.7;font-family:'Race Sport';-inkscape-font-specification:'Race Sport';letter-spacing:0.19183px;word-spacing:0.275232px;fill:#2b2c2f;stroke-width:0.189137;stroke-linecap:round;stroke-linejoin:round;stroke-dasharray:0.189137, 0.378274, 0.189137, 0.756542;paint-order:stroke fill markers"
             d="m 210.79562,298.00614 0.0213,-0.1084 h 0.40648 l -0.008,0.0368 q -0.004,0.0213 0.01,0.0387 0.0135,0.0155 0.0348,0.0155 h 0.76264 l -0.22647,-0.0677 0.0213,-0.10453 q 0.004,-0.0213 -0.01,-0.0368 -0.0136,-0.0174 -0.0348,-0.0174 h -0.62714 q -0.0581,0 -0.1084,-0.0252 -0.0503,-0.0252 -0.0832,-0.0658 -0.0329,-0.0406 -0.0484,-0.0948 -0.0135,-0.0542 -0.002,-0.11227 l 0.0619,-0.31551 q 0.0174,-0.0871 0.0852,-0.14323 0.0697,-0.0561 0.15872,-0.0561 h 0.89426 q 0.0581,0 0.1084,0.0252 0.0503,0.0252 0.0832,0.0658 0.0329,0.0406 0.0484,0.0948 0.0155,0.0523 0.004,0.11033 l -0.0232,0.11033 h -0.40649 l 0.008,-0.0368 q 0.004,-0.0213 -0.01,-0.0368 -0.0135,-0.0174 -0.0348,-0.0174 h -0.77038 l 0.22453,0.0677 -0.0155,0.0813 q -0.004,0.0213 0.01,0.0387 0.0136,0.0155 0.0348,0.0155 h 0.51295 q 0.0581,0 0.0948,0 l 0.0368,0.002 q 0.0561,0.004 0.10065,0.031 0.0465,0.0252 0.0774,0.0658 0.031,0.0406 0.0445,0.0929 0.0135,0.0503 0.002,0.10646 l -0.0677,0.33873 q -0.0174,0.0871 -0.0871,0.14324 -0.0677,0.0561 -0.15679,0.0561 h -0.88458 q -0.0581,0 -0.10839,-0.0252 -0.0503,-0.0252 -0.0832,-0.0658 -0.0329,-0.0406 -0.0484,-0.0948 -0.0136,-0.0542 -0.002,-0.11226 z m 1.95906,-1.05686 h 1.38204 l -0.0639,0.31551 h -0.69102 l 0.22647,0.0677 -0.1955,0.97168 h -0.451 l 0.20711,-1.03943 h -0.4781 z m 2.03842,0.97169 -0.0774,0.38325 h -0.40649 l 0.23421,-1.17299 q 0.0155,-0.0813 0.0774,-0.13162 0.0639,-0.0503 0.14517,-0.0503 h 0.93878 q 0.0542,0 0.0987,0.0232 0.0464,0.0213 0.0755,0.06 0.031,0.0368 0.0445,0.0852 0.0136,0.0484 0.002,0.10065 l -0.21679,1.08589 h -0.40648 l 0.0774,-0.38325 z m 0.65037,-0.31744 0.0561,-0.28454 q 0.004,-0.0213 -0.01,-0.0368 -0.0135,-0.0174 -0.0348,-0.0174 h -0.77038 l 0.22453,0.0677 -0.0542,0.27099 z m 1.73647,0.31744 h -0.49553 l -0.0774,0.38325 h -0.40648 l 0.27098,-1.35494 h 1.30462 q 0.0542,0 0.0987,0.0232 0.0464,0.0213 0.0755,0.06 0.031,0.0368 0.0445,0.0852 0.0135,0.0484 0.004,0.10065 l -0.10453,0.52069 q -0.0155,0.0794 -0.0774,0.13162 -0.0619,0.0503 -0.14324,0.0503 h -0.0871 l 0.17227,0.38325 h -0.40648 z m 0.29808,-0.31744 q 0.0155,0 0.0271,-0.01 0.0135,-0.01 0.0174,-0.0252 l 0.0484,-0.24969 q 0.004,-0.0213 -0.01,-0.0368 -0.0116,-0.0174 -0.0329,-0.0174 h -0.95233 l 0.22453,0.0677 -0.0542,0.27099 z m 0.92737,-0.65425 h 1.38204 l -0.0639,0.31551 h -0.69102 l 0.22646,0.0677 -0.19549,0.97168 h -0.45101 l 0.20712,-1.03943 h -0.4781 z"
             id="path17"
             aria-label="START" />
          <path
             style="fill:#ffffff;fill-opacity:1;stroke:#000000;stroke-width:0.333942;stroke-opacity:1"
             d="m 213.1303,294.78691 c -1.0672,0.18222 -2.19187,-0.23014 -2.87638,-1.16178 -0.96344,-1.31325 -0.67944,-3.15791 0.63392,-4.12069 l 5.3155,-3.89828 c 1.31354,-0.96177 3.15793,-0.67942 4.12071,0.63393 0.96275,1.31336 0.67943,3.15794 -0.63394,4.1207 l -5.3155,3.89827 c -0.38117,0.27952 -0.80749,0.45328 -1.24431,0.52785 z"
             id="path26" />
        </g>
        <g
           id="g2"
           transform="matrix(0.80604121,0,0,0.80604121,40.210622,49.898888)">
          <path
             style="fill:#ffffff;fill-opacity:1;stroke:#c0bfbf;stroke-width:0.6;stroke-linecap:round;stroke-linejoin:round;stroke-dasharray:none;stroke-opacity:1;paint-order:stroke fill markers"
             id="path34"
             width="25.730728"
             height="23.8125"
             x="-207.71657"
             y="128.86476"
             inkscape:path-effect="#path-effect50"
             sodipodi:type="rect"
             d="m -204.80615,128.86476 h 19.90989 a 2.9104167,2.9104167 45 0 1 2.91042,2.91042 v 17.99166 a 2.9104167,2.9104167 135 0 1 -2.91042,2.91042 h -19.90989 a 2.9104167,2.9104167 45 0 1 -2.91042,-2.91042 v -17.99166 a 2.9104167,2.9104167 135 0 1 2.91042,-2.91042 z"
             transform="translate(402.16666,128.70064)" />
          <path
             style="fill:#000000;fill-opacity:1;stroke-width:0.20938"
             d="m 215.5949,279.39805 h -16.63477 c -1.53119,0 -2.77239,-1.2414 -2.77239,-2.77239 v 0 c 0,-1.53118 1.24141,-2.77238 2.77239,-2.77238 h 16.63477 c 1.5312,0 2.7724,1.24139 2.7724,2.77238 v 0 c 0,1.53099 -1.2412,2.77239 -2.7724,2.77239 z"
             id="path35" />
          <path
             style="font-size:7.32222px;line-height:1.7;font-family:'Race Sport';-inkscape-font-specification:'Race Sport';letter-spacing:0.725656px;word-spacing:1.04116px;fill:#c64430;stroke-width:0.715475;stroke-linecap:round;stroke-linejoin:round;stroke-dasharray:0.715475, 1.43094, 0.715475, 2.86185;paint-order:stroke fill markers"
             d="m 201.49987,267.44565 h 1.53767 l -1.02511,5.12556 h -2.64332 l -0.81277,-4.05651 h -0.90795 l 0.85669,0.25628 -0.76151,3.80023 h -1.53766 l 1.02511,-5.12556 h 2.65064 l 0.81277,4.05651 z m 8.2163,3.67576 h -3.74166 l -0.28556,1.4498 h -1.62554 l 1.02511,-5.12556 h 5.14752 q 0.17574,0 0.32218,0.0732 0.15377,0.0732 0.25628,0.20502 0.10251,0.12448 0.14644,0.28556 0.0513,0.16109 0.0147,0.33683 l -0.41737,2.08683 q -0.0586,0.30021 -0.30021,0.49791 -0.23431,0.19038 -0.54184,0.19038 z m -3.50002,-1.20085 h 2.76779 q 0.0586,0 0.10252,-0.0366 0.0439,-0.0366 0.0586,-0.0952 l 0.19038,-0.94456 q 0.0147,-0.0805 -0.0366,-0.13912 -0.0513,-0.0659 -0.1318,-0.0659 h -3.60253 l 0.8567,0.25627 z m 7.90143,-1.02511 -0.45398,2.27721 q -0.0146,0.0805 0.0366,0.14645 0.0513,0.0586 0.1318,0.0586 h 2.1747 q 0.0586,0 0.10251,-0.0366 0.0513,-0.0439 0.0659,-0.10251 l 0.13912,-0.71757 h -0.63703 q -0.11716,0 -0.21967,-0.0513 -0.10251,-0.0512 -0.17573,-0.1318 -0.0659,-0.0879 -0.0952,-0.1977 -0.0293,-0.11715 -0.007,-0.23431 l 0.0805,-0.41004 h 2.79709 l -0.38808,1.97699 q -0.0512,0.24164 -0.17573,0.44666 -0.12448,0.1977 -0.30021,0.34414 -0.17573,0.14645 -0.40272,0.22699 -0.21967,0.0805 -0.4613,0.0805 h -3.56592 q -0.17574,0 -0.3295,-0.0732 -0.15377,-0.0732 -0.25628,-0.1977 -0.10251,-0.1318 -0.14645,-0.29289 -0.0439,-0.16109 -0.007,-0.33683 l 0.71026,-3.53663 q 0.0586,-0.30753 0.29289,-0.49791 0.23431,-0.19038 0.54184,-0.19038 h 4.76677 l -0.24164,1.19353 h -4.83266 z"
             id="path36"
             aria-label="NPG" />
          <path
             style="font-size:4.25907px;line-height:1.7;font-family:'Race Sport';-inkscape-font-specification:'Race Sport';letter-spacing:0.422089px;word-spacing:0.605608px;fill:#e14d37;fill-opacity:1;stroke-width:0.416168;stroke-linecap:round;stroke-linejoin:round;stroke-dasharray:0.416168, 0.832338, 0.416168, 1.66465;paint-order:stroke fill markers"
             d="m 199.4427,277.46045 0.0469,-0.23851 h 0.8944 l -0.017,0.0809 q -0.009,0.0469 0.0213,0.0852 0.0298,0.0341 0.0767,0.0341 h 1.67807 l -0.49831,-0.14907 0.0468,-0.22999 q 0.009,-0.0468 -0.0213,-0.0809 -0.0298,-0.0383 -0.0767,-0.0383 h -1.37994 q -0.12777,0 -0.23851,-0.0554 -0.11073,-0.0554 -0.18314,-0.14481 -0.0724,-0.0894 -0.10647,-0.2087 -0.0298,-0.11925 -0.004,-0.24702 l 0.13629,-0.69423 q 0.0383,-0.19166 0.1874,-0.31517 0.15332,-0.12352 0.34924,-0.12352 h 1.96769 q 0.12777,0 0.23851,0.0554 0.11074,0.0554 0.18314,0.14481 0.0724,0.0894 0.10648,0.2087 0.0341,0.11499 0.009,0.24276 l -0.0511,0.24277 h -0.89441 l 0.017,-0.0809 q 0.009,-0.0469 -0.0213,-0.0809 -0.0298,-0.0383 -0.0767,-0.0383 h -1.69511 l 0.49405,0.14907 -0.0341,0.17888 q -0.009,0.0469 0.0213,0.0852 0.0298,0.0341 0.0767,0.0341 h 1.12865 q 0.12777,0 0.20869,0 l 0.0809,0.004 q 0.12351,0.009 0.22147,0.0682 0.10222,0.0554 0.17036,0.14481 0.0682,0.0894 0.098,0.20443 0.0298,0.11074 0.004,0.23425 l -0.14907,0.74534 q -0.0383,0.19166 -0.19166,0.31517 -0.14906,0.12351 -0.34498,0.12351 h -1.9464 q -0.12777,0 -0.2385,-0.0554 -0.11074,-0.0554 -0.18314,-0.14481 -0.0724,-0.0894 -0.10648,-0.2087 -0.0298,-0.11925 -0.004,-0.24702 z m 7.10031,-2.32546 h 0.8944 l -0.59627,2.98135 h -1.53752 l -0.47276,-2.35952 h -0.52812 l 0.49831,0.14907 -0.44294,2.21045 h -0.89441 l 0.59627,-2.98135 h 1.54178 l 0.47276,2.35953 z m 2.20664,0.69423 0.49831,0.14907 -0.0639,0.32369 h 1.59289 l -0.12777,0.64738 h -1.59715 l -0.0682,0.3535 q -0.009,0.0469 0.0213,0.0852 0.0298,0.0341 0.0767,0.0341 h 1.76325 l -0.13629,0.69422 h -2.17638 q -0.11925,0 -0.22147,-0.0469 -0.098,-0.0511 -0.16611,-0.13203 -0.0639,-0.0852 -0.0937,-0.19166 -0.0298,-0.11073 -0.009,-0.22573 l 0.47701,-2.38508 h 2.78543 l -0.14055,0.69423 z m 2.94773,1.63123 0.0468,-0.23851 h 0.8944 l -0.017,0.0809 q -0.009,0.0469 0.0213,0.0852 0.0298,0.0341 0.0767,0.0341 h 1.67808 l -0.49832,-0.14907 0.0468,-0.22999 q 0.009,-0.0468 -0.0213,-0.0809 -0.0298,-0.0383 -0.0767,-0.0383 h -1.37994 q -0.12778,0 -0.23851,-0.0554 -0.11074,-0.0554 -0.18314,-0.14481 -0.0724,-0.0894 -0.10648,-0.2087 -0.0298,-0.11925 -0.004,-0.24702 l 0.13629,-0.69423 q 0.0383,-0.19166 0.1874,-0.31517 0.15333,-0.12352 0.34925,-0.12352 h 1.96769 q 0.12777,0 0.2385,0.0554 0.11074,0.0554 0.18314,0.14481 0.0724,0.0894 0.10648,0.2087 0.0341,0.11499 0.009,0.24276 l -0.0511,0.24277 h -0.8944 l 0.017,-0.0809 q 0.009,-0.0469 -0.0213,-0.0809 -0.0298,-0.0383 -0.0767,-0.0383 h -1.69511 l 0.49406,0.14907 -0.0341,0.17888 q -0.009,0.0469 0.0213,0.0852 0.0298,0.0341 0.0767,0.0341 h 1.12866 q 0.12777,0 0.20869,0 l 0.0809,0.004 q 0.12352,0.009 0.22147,0.0682 0.10222,0.0554 0.17037,0.14481 0.0681,0.0894 0.098,0.20443 0.0298,0.11074 0.004,0.23425 l -0.14906,0.74534 q -0.0383,0.19166 -0.19166,0.31517 -0.14907,0.12351 -0.34499,0.12351 h -1.94639 q -0.12777,0 -0.23851,-0.0554 -0.11073,-0.0554 -0.18314,-0.14481 -0.0724,-0.0894 -0.10648,-0.2087 -0.0298,-0.11925 -0.004,-0.24702 z"
             id="path37"
             aria-label="SNES" />
          <path
             style="fill:#c64430;fill-opacity:1;stroke:none;stroke-width:0.439;stroke-linecap:round;stroke-linejoin:miter;stroke-dasharray:none;stroke-opacity:1"
             d="m 2944.1875,981.49018 2.5307,-3.75267 1.8823,7.2803 4.6626,-7.24525 2.0364,7.28591 2.6422,-3.49055 z"
             id="path38"
             sodipodi:nodetypes="ccccccc"
             inkscape:export-filename="..\..\..\..\Users\UDL4060\Desktop\55555.png"
             inkscape:export-xdpi="96"
             inkscape:export-ydpi="96"
             inkscape:path-effect="#path-effect52"
             inkscape:original-d="m 2944.1875,981.49018 2.5307,-3.75267 1.8823,7.2803 4.6626,-7.24525 2.0364,7.28591 2.6422,-3.49055 z"
             transform="matrix(0.87877194,0,0,0.87877194,-2380.913,-599.80899)" />
          <g
             id="g48"
             transform="matrix(6.9668401,0,0,6.9668401,-3087.7941,-857.41844)">
            <g
               id="g47"
               style="fill:#000000"
               transform="matrix(0.05570459,0,0,0.05570459,446.25617,153.16522)">
              <path
                 class="st0"
                 d="m 459.7231,140.55515 c 0,-0.15717 0.17288,-0.18337 0.30123,-0.18337 h 0.82776 c 0.11263,0 0.32481,0.0105 0.32481,0.16241 0,0.0655 -0.003,0.1074 -0.0786,0.15717 -0.0393,0.0236 -0.0943,0.0341 -0.15717,0.0341 H 460.006 c -0.0707,0 -0.13883,-0.008 -0.1886,-0.0341 -0.0445,-0.021 -0.0943,-0.076 -0.0943,-0.13621 z m -2.6378,-12.20933 h 0.19122 0.22789 c 0.0367,0.003 0.0681,0.0105 0.0943,0.0236 0.0707,0.0393 0.1205,0.11001 0.1205,0.21741 -0.003,0.45317 0.008,0.91419 0.008,1.36474 v 1.03207 c 0,0.0629 -0.008,0.0969 -0.008,0.16241 0,0.0341 0,0.055 0.008,0.0812 l 0.40602,0.70726 c 0.17289,0.28552 0.33529,0.5789 0.50294,0.86704 l 0.93777,1.63455 c 0.021,0.0367 0.0393,0.0707 0.0629,0.10739 l 0.62606,1.08446 c 0.0131,0.0236 0.0183,0.0341 0.0314,0.0576 l 1.46952,2.54874 c 0.0105,0.021 0.0183,0.0367 0.0314,0.0576 l 0.34577,0.59986 c 0.11788,0.22003 0.25147,0.43221 0.37459,0.64962 0.16764,0.29076 0.32743,0.58152 0.50031,0.86967 l 0.25147,0.43483 c 0.2017,0.34839 0.0472,0.75178 -0.34577,0.8487 -0.12573,0.0314 -0.50293,0.0131 -0.67058,0.0131 -0.22789,0 -0.45841,0 -0.6863,0 -0.12573,0 -0.58414,0.0131 -0.67058,-0.008 h -0.87752 c -0.9142,0.003 -1.82839,0 -2.74258,0 -0.91682,0 -1.81267,0.008 -2.73211,0.008 -0.0236,-0.0183 -0.82513,-0.0262 -0.86966,-0.008 -0.0393,0 -0.0445,-0.008 -0.0864,-0.008 -0.19384,-0.003 -0.40078,0.008 -0.58938,0.008 -0.22789,0 -0.45841,0 -0.6863,0 -0.18598,0 -0.52389,0.0157 -0.6732,-0.0131 -0.18075,-0.0341 -0.3091,-0.14669 -0.38506,-0.29862 -0.14669,-0.29076 0.0157,-0.53176 0.15716,-0.76489 l 0.62606,-1.08446 c 0.17288,-0.28552 0.33529,-0.58152 0.50293,-0.86966 l 0.75179,-1.30449 c 0.0419,-0.0734 0.0864,-0.14407 0.12835,-0.22004 l 0.43745,-0.75702 c 0.0236,-0.0367 0.0393,-0.0707 0.0629,-0.1074 l 0.78584,-1.3595 c 0.18336,-0.30386 0.34839,-0.6182 0.53175,-0.92205 0.021,-0.0367 0.0419,-0.0681 0.0629,-0.1074 0.1205,-0.22004 0.25671,-0.43221 0.3772,-0.65487 l 0.44007,-0.76226 c 0.0236,-0.0367 0.0393,-0.0681 0.0629,-0.1074 l 0.0629,-0.1074 c 0.0131,-0.021 0.0183,-0.0341 0.0314,-0.055 l 0.46889,-0.81203 c 0.0733,-0.1205 0.0864,-0.1074 0.0864,-0.25933 v -1.88078 c 0,-0.14407 -0.0105,-0.56318 0,-0.67058 0.0262,-0.18336 0.12835,-0.22789 0.25671,-0.23575 z m -3.12765,12.78561 c -0.0288,-0.0471 -0.0131,-0.35101 -0.0105,-0.42959 -0.0838,0 -0.37983,0.0183 -0.43745,-0.0131 -0.0498,-0.021 -0.0393,0.005 -0.0838,-0.0419 -0.0707,-0.0734 -0.055,-0.20432 0.0419,-0.25147 0.0734,-0.0341 0.37197,-0.0157 0.48461,-0.0157 l 0.005,-0.16764 c -0.008,-0.0602 -0.0157,-0.28291 0.0236,-0.3353 0.0472,-0.0655 0.13097,-0.0838 0.19646,-0.0524 0.0812,0.0393 0.0864,0.0995 0.0864,0.18598 0,0.0524 -0.0131,0.34053 0.005,0.36148 0.021,0.021 0.30386,0.005 0.35363,0.005 0.0786,0 0.10216,-0.005 0.15193,0.0341 0.0314,0.0236 0.0629,0.0707 0.0629,0.12049 0,0.055 -0.0288,0.10216 -0.0602,0.12312 -0.0943,0.0629 -0.39292,0.0367 -0.51604,0.0367 0,0.0864 0.008,0.15193 0.008,0.24361 0,0.0524 -0.008,0.2017 -0.021,0.23837 -0.0183,0.0472 -0.0917,0.0969 -0.1624,0.0838 -0.0707,-0.008 -0.12836,-0.0445 -0.12836,-0.12573 z m 3.95278,-3.34768 -0.16503,0.0864 c -0.13359,0.0734 -0.34839,0.13098 -0.50032,0.14146 -0.30124,0.0209 -0.54223,-0.0236 -0.77798,-0.20956 -0.0236,-0.0183 -0.0472,-0.0419 -0.0707,-0.055 -0.021,0.0419 -0.0472,0.2017 -0.0576,0.25933 -0.0183,0.0917 -0.0341,0.18598 -0.0524,0.27242 -0.0367,0.18336 -0.0734,0.35363 -0.11002,0.53961 -0.034,0.17289 -0.12835,0.30386 -0.30648,0.33529 -0.20431,0.0314 -0.351,-0.0786 -0.351,-0.27766 0,-0.0995 0.0209,-0.18598 0.0393,-0.26981 0.0157,-0.0786 0.0393,-0.17026 0.055,-0.25408 0.034,-0.17289 0.0707,-0.34577 0.10215,-0.51604 l 0.46365,-2.32346 c 0.0183,-0.0864 0.0314,-0.17289 0.055,-0.25409 0.0262,-0.0943 0.0498,-0.13621 0.11526,-0.19646 0.12835,-0.11526 0.36148,-0.12836 0.48984,0.0472 0.0917,0.12835 -0.005,0.44531 -0.0314,0.56842 -0.0367,0.18075 -0.21217,0.99016 -0.21217,1.13685 0,0.2829 0.15716,0.48722 0.40339,0.54747 0.0498,0.0131 0.0786,0.0183 0.13622,0.0183 0.0367,0 0.0393,0.008 0.0733,0.008 0.0288,-0.003 0.0367,-0.008 0.0734,-0.008 0.1624,0 0.34838,-0.0733 0.47674,-0.15716 0.32481,-0.20694 0.33529,-0.49508 0.40863,-0.86705 l 0.15717,-0.79369 c 0.0445,-0.22528 0.0498,-0.44793 0.25147,-0.54485 0.11526,-0.0576 0.30124,-0.0471 0.38506,0.0498 0.11788,0.13883 0.0707,0.27766 0.0393,0.43483 l -0.37982,1.89125 c -0.0576,0.2829 -0.0681,0.56581 -0.41387,0.59724 -0.0681,0.005 -0.14931,-0.0236 -0.19122,-0.0524 -0.0629,-0.0471 -0.0707,-0.0891 -0.10478,-0.15455 z"
                 id="path39"
                 style="clip-rule:evenodd;fill:#000000;fill-opacity:1;fill-rule:evenodd;stroke-width:0.0261947" />
              <path
                 class="st0"
                 d="m 467.92988,136.90623 c -0.17288,0 -0.30648,0.0236 -0.41126,-0.0891 -0.055,-0.0576 -0.0602,-0.16765 -0.0602,-0.27766 v -1.26782 c 0,-0.27243 0.17026,-0.296 0.3903,-0.296 0.34053,0 0.59985,0.005 0.85656,0.21217 0.34053,0.27505 0.43221,0.8199 0.24361,1.19186 -0.12311,0.24361 -0.28028,0.39292 -0.55009,0.48198 -0.11787,0.0367 -0.31171,0.0445 -0.46888,0.0445 z m 3.12764,1.85196 v 0.17289 c -0.003,0.0393 -0.005,0.0733 -0.0105,0.0864 -0.008,0.0262 -0.0209,0.0393 -0.0367,0.0602 -0.0157,0.0183 -0.0288,0.0288 -0.0498,0.0393 -0.0864,0.0498 -0.19908,0.0367 -0.33267,0.0367 -0.73607,0 -1.46952,0 -2.20559,0 v 5.16035 c 0,0.14407 0.0288,0.35625 -0.14145,0.41125 -0.0419,0.0131 -0.296,0.0157 -0.34315,-0.003 -0.0472,-0.0157 -0.076,-0.0472 -0.0995,-0.0865 -0.0314,-0.0524 -0.0288,-0.0733 -0.0288,-0.15455 v -5.32799 c -0.7413,0 -1.48523,0 -2.22654,0 -0.12573,0 -0.24885,0.0105 -0.32481,-0.0419 -0.0367,-0.0262 -0.0655,-0.0602 -0.0786,-0.10478 -0.0131,-0.0445 -0.0183,-0.28552 0.0105,-0.34839 0.0786,-0.15978 0.25933,-0.11525 0.42435,-0.11525 h 2.21083 c -0.003,-0.0367 -0.19384,-0.32482 -0.21741,-0.36673 L 467.165,137.4537 c -0.2148,-0.34839 -0.45841,-0.73607 -0.66535,-1.08184 -0.0367,-0.0629 -0.076,-0.12311 -0.11263,-0.18336 l -0.9954,-1.61621 c -0.0943,-0.16241 -0.0419,-0.3222 0.11526,-0.36411 0.12573,-0.0341 0.40863,-0.0131 0.55532,-0.0131 h 1.73933 c 0.12573,0.003 0.51603,0.0236 0.61295,-0.005 0.0786,-0.008 1.05827,-0.003 1.16566,-0.003 0.17289,0 1.05565,-0.0131 1.14995,0.0157 0.0629,0.021 0.13097,0.0786 0.14931,0.14669 0.0288,0.10216 -0.0157,0.16241 -0.0524,0.22266 -0.0733,0.12311 -0.14669,0.23837 -0.22004,0.36148 l -2.19773,3.60439 c 0.73607,0 1.47476,0 2.21083,0 0.16241,0 0.36411,-0.0393 0.42435,0.12835 0.008,0.0183 0.0105,0.0524 0.0131,0.0917 z"
                 id="path40"
                 style="clip-rule:evenodd;fill:#000000;fill-opacity:1;fill-rule:evenodd;stroke-width:0.0261947" />
              <path
                 class="st1"
                 d="m 467.80415,134.20032 c 0.12573,0.003 0.51603,0.0236 0.61295,-0.005 0,-0.26195 0.008,-0.50032 0.008,-0.76227 0,-0.25671 0,-0.51603 0,-0.77536 0,-0.25933 -0.008,-0.4977 -0.008,-0.75965 v -3.08049 c 0,-0.14669 0.0419,-0.39554 -0.11788,-0.45578 -0.0262,-0.0105 -0.055,-0.0131 -0.0864,-0.0157 h -0.0943 -0.003 -0.008 -0.0288 c -0.13359,0 -0.1886,0.005 -0.24361,0.10216 -0.0445,0.076 -0.0288,0.23313 -0.0288,0.35363 z"
                 id="path41"
                 style="clip-rule:evenodd;fill:#000000;fill-opacity:1;fill-rule:evenodd;stroke-width:0.0261947" />
              <path
                 class="st2"
                 d="m 460.89662,141.69985 h -0.87752 c -0.0183,0.0393 -0.008,1.55596 -0.008,1.73147 0,0.29076 0,0.5789 0,0.86966 0,0.16241 -0.0157,0.28028 0.0681,0.36673 0.0524,0.0524 0.10478,0.0707 0.17027,0.076 h 0.19384 0.005 0.003 0.20432 c 0.0629,-0.005 0.11787,-0.0209 0.1624,-0.0629 l 0.0471,-0.0576 c 0.0157,-0.0288 0.0183,-0.0471 0.0262,-0.0838 0.0131,-0.0707 0.005,-2.67447 0.005,-2.8395 z"
                 id="path42"
                 style="clip-rule:evenodd;fill:#000000;fill-opacity:1;fill-rule:evenodd;stroke-width:0.0261947" />
              <path
                 class="st2"
                 d="m 454.54441,141.70509 c -0.0236,-0.0183 -0.82513,-0.0262 -0.86966,-0.008 -0.0131,0.0524 -0.005,0.75441 -0.005,0.86967 v 1.94626 c 0,0.0707 0.0288,0.12049 0.0655,0.15717 0.0471,0.0498 0.10216,0.0655 0.16765,0.0707 h 0.19907 0.005 0.008 0.18074 c 0.0707,-0.003 0.13098,-0.0183 0.18075,-0.0655 0.0891,-0.0812 0.0707,-0.20169 0.0707,-0.3641 0,-0.22004 -0.008,-2.30513 0.005,-2.39943 0.008,-0.0393 0,-0.16241 -0.008,-0.20694 z"
                 id="path43"
                 style="clip-rule:evenodd;fill:#000000;fill-opacity:1;fill-rule:evenodd;stroke-width:0.0261947" />
              <path
                 class="st1"
                 d="m 469.5749,132.28288 v 0.40601 h -0.41911 c -0.16241,0 -0.19646,0.23052 -0.0786,0.29862 0.0838,0.0498 0.37458,0.0314 0.49769,0.0314 v 0.39815 c 0,0.23052 0.32482,0.20432 0.32482,0.008 v -0.40601 c 0.13097,0 0.41125,0.0183 0.50032,-0.0367 0.0786,-0.0498 0.0995,-0.15716 0.0288,-0.24099 -0.021,-0.0262 -0.0707,-0.0524 -0.11526,-0.0524 h -0.41387 v -0.41387 c 0,-0.2017 -0.32482,-0.2148 -0.32482,0.008 z"
                 id="path44"
                 style="clip-rule:evenodd;fill:#000000;fill-opacity:1;fill-rule:evenodd;stroke-width:0.0261947" />
              <path
                 class="st0"
                 d="m 467.95346,136.44259 c 0.19384,0 0.29861,0.005 0.45316,-0.11526 0.0655,-0.0498 0.15193,-0.17812 0.15193,-0.29076 0,-0.17812 0.0131,-0.32743 -0.14145,-0.46888 -0.13883,-0.13098 -0.28552,-0.1205 -0.46364,-0.1205 z"
                 id="path45"
                 style="clip-rule:evenodd;fill:#000000;fill-opacity:1;fill-rule:evenodd;stroke-width:0.0261947" />
              <path
                 class="st0"
                 d="m 469.00648,140.0915 c 0,0.12574 0.0786,0.19908 0.19122,0.19908 h 1.09232 c 0.20694,0 0.28814,-0.36149 -0.0655,-0.36149 h -0.96658 c -0.11526,0 -0.25147,0.0524 -0.25147,0.16241 z"
                 id="path46"
                 style="clip-rule:evenodd;fill:#000000;fill-opacity:1;fill-rule:evenodd;stroke-width:0.0261947" />
              <path
                 class="st3"
                 d="m 453.95765,141.13143 c 0,-0.11264 0.0131,-0.34577 -0.008,-0.43483 -0.0891,-0.021 -0.32744,-0.008 -0.44007,-0.008 0.055,0.0288 0.35362,0.0131 0.43745,0.0131 0,0.076 -0.0183,0.38244 0.0105,0.42959 z"
                 id="path47"
                 style="clip-rule:evenodd;fill:#000000;fill-rule:evenodd;stroke-width:0.0261947" />
            </g>
            <path
               style="fill:none;stroke:#8b8b8b;stroke-width:0.0195567;stroke-linecap:round;stroke-linejoin:round;stroke-dasharray:none;stroke-opacity:1;paint-order:stroke fill markers"
               d="m 472.70713,160.32766 v 0.89444"
               id="path48"
               sodipodi:nodetypes="cc" />
          </g>
        </g>
      </g>
    </g>
  </g>
</svg>
